<?xml version="1.0" encoding="UTF-8" standalone="no"?>
<!DOCTYPE svg PUBLIC "-//W3C//DTD SVG 1.1//EN" "http://www.w3.org/Graphics/SVG/1.1/DTD/svg11.dtd">
<!-- Created with Vectornator (http://vectornator.io/) -->
<svg height="100%" stroke-miterlimit="10" style="fill-rule:nonzero;clip-rule:evenodd;stroke-linecap:round;stroke-linejoin:round;" version="1.1" viewBox="0 0 1013.36 180.434" width="100%" xml:space="preserve" xmlns="http://www.w3.org/2000/svg" xmlns:xlink="http://www.w3.org/1999/xlink">
<defs>
<clipPath id="TextBounds">
<rect height="193.734" width="1485.7" x="-765.736" y="36.39"/>
</clipPath>
<clipPath id="TextBounds_2">
<rect height="211.499" width="270.474" x="739.264" y="0.49116"/>
</clipPath>
</defs>
<g id="Layer-1">
<g opacity="1">
<g fill="#ff0000" opacity="1" stroke="none">
<path clip-path="url(#TextBounds)" d="M30.8073 101.472L45.6901 101.531C47.3698 101.531 48.9616 101.296 50.4655 100.828C51.9694 100.359 53.278 99.6459 54.3913 98.6889C55.5046 97.7318 56.3933 96.5502 57.0573 95.1439C57.7214 93.7377 58.0534 92.0971 58.0534 90.2221C58.0534 87.8392 57.5847 85.8666 56.6472 84.3041C55.7097 82.7416 54.4987 81.5111 53.0143 80.6127C51.53 79.7142 49.8698 79.0892 48.0339 78.7377C46.1979 78.3861 44.362 78.2103 42.5261 78.2103C40.1433 78.2103 38.0632 78.4545 36.2858 78.9428C34.5085 79.431 32.985 80.0658 31.7155 80.8471C30.446 81.6283 29.3913 82.4974 28.5515 83.4545C27.7116 84.4115 27.0573 85.3685 26.5886 86.3256C26.1198 87.2826 25.7878 88.181 25.5925 89.0209C25.3972 89.8607 25.2995 90.5346 25.2995 91.0424L8.71747 91.0424C8.71747 89.8314 8.86395 88.3275 9.15692 86.5306C9.44989 84.7338 10.0261 82.8392 10.8854 80.8471C11.7448 78.8549 12.9655 76.8627 14.5475 74.8705C16.1296 72.8783 18.2292 71.0814 20.8464 69.4799C23.4636 67.8783 26.6569 66.5795 30.4265 65.5834C34.196 64.5873 38.6979 64.0892 43.9323 64.0892C49.4401 64.0892 54.1765 64.8217 58.1413 66.2865C62.1061 67.7514 65.3581 69.6264 67.8972 71.9115C70.4362 74.1967 72.3112 76.7455 73.5222 79.558C74.7331 82.3705 75.3386 85.1244 75.3386 87.8197C75.3386 89.3431 75.153 90.9447 74.7819 92.6244C74.4108 94.3041 73.7272 95.9447 72.7311 97.5463C71.735 99.1478 70.3874 100.632 68.6882 101.999C66.989 103.367 64.7917 104.48 62.0964 105.339L62.0964 105.574C62.9558 105.808 63.9518 106.101 65.0847 106.453C66.2175 106.804 67.3796 107.302 68.571 107.947C69.7624 108.591 70.9343 109.421 72.0866 110.437C73.239 111.453 74.2643 112.722 75.1628 114.245C76.0612 115.769 76.7936 117.595 77.36 119.724C77.9265 121.853 78.2097 124.343 78.2097 127.195C78.2097 130.945 77.4089 134.48 75.8073 137.8C74.2058 141.12 71.8718 144.021 68.8054 146.501C65.739 148.982 61.9499 150.945 57.4382 152.39C52.9265 153.835 47.7604 154.558 41.9401 154.558C38.9714 154.558 36.0222 154.392 33.0925 154.06C30.1628 153.728 27.3796 153.152 24.7429 152.331C22.1061 151.511 19.655 150.427 17.3893 149.079C15.1237 147.732 13.1608 146.052 11.5007 144.04C9.84052 142.029 8.54169 139.646 7.60419 136.892C6.66669 134.138 6.19794 130.945 6.19794 127.312L22.78 127.312C22.78 128.757 23.1218 130.251 23.8054 131.794C24.489 133.337 25.5925 134.744 27.1159 136.013C28.6393 137.283 30.6315 138.328 33.0925 139.148C35.5534 139.968 38.5417 140.378 42.0573 140.378C45.3386 140.378 48.1315 139.997 50.4362 139.236C52.7409 138.474 54.6159 137.458 56.0612 136.189C57.5065 134.919 58.5612 133.474 59.2253 131.853C59.8893 130.232 60.2214 128.562 60.2214 126.843C60.2214 124.148 59.7624 121.99 58.8444 120.369C57.9265 118.747 56.7643 117.507 55.3581 116.648C53.9518 115.788 52.4284 115.232 50.7878 114.978C49.1472 114.724 47.6042 114.597 46.1589 114.597L30.8073 114.597L30.8073 101.472Z"/>
<path clip-path="url(#TextBounds)" d="M127.663 152.39L91.862 152.39L91.862 88.5228L124.909 88.5228C127.839 88.5228 130.661 88.7767 133.376 89.2846C136.091 89.7924 138.483 90.681 140.553 91.9506C142.624 93.2201 144.274 94.9389 145.505 97.1068C146.735 99.2748 147.35 102.019 147.35 105.339C147.35 107.253 147.145 108.913 146.735 110.32C146.325 111.726 145.768 112.927 145.065 113.923C144.362 114.919 143.551 115.759 142.633 116.443C141.716 117.126 140.768 117.703 139.792 118.171C142.995 119.304 145.436 121.111 147.116 123.591C148.796 126.072 149.635 129.031 149.635 132.468C149.635 135.476 149.118 138.201 148.083 140.642C147.048 143.083 145.583 145.173 143.688 146.912C141.794 148.65 139.489 149.997 136.774 150.954C134.059 151.912 131.022 152.39 127.663 152.39ZM126.374 125.027C124.928 124.792 123.21 124.675 121.217 124.675L108.444 124.675L108.444 140.613L121.217 140.613C123.6 140.613 125.524 140.359 126.989 139.851C128.454 139.343 129.587 138.699 130.387 137.917C131.188 137.136 131.716 136.277 131.969 135.339C132.223 134.402 132.35 133.523 132.35 132.703C132.35 131.14 132.145 129.841 131.735 128.806C131.325 127.771 130.68 126.941 129.801 126.316C128.923 125.691 127.78 125.261 126.374 125.027ZM128.893 111.843C129.596 111.296 130.094 110.603 130.387 109.763C130.68 108.923 130.827 107.937 130.827 106.804C130.827 105.867 130.68 104.997 130.387 104.197C130.094 103.396 129.596 102.712 128.893 102.146C128.19 101.579 127.253 101.13 126.081 100.798C124.909 100.466 123.444 100.3 121.686 100.3L108.444 100.3L108.444 113.601L121.217 113.601C123.092 113.601 124.655 113.454 125.905 113.162C127.155 112.869 128.151 112.429 128.893 111.843Z"/>
<path clip-path="url(#TextBounds)" d="M176.94 152.449C173.19 151.16 169.919 149.138 167.126 146.384C164.333 143.63 162.135 140.066 160.534 135.691C158.932 131.316 158.132 126.003 158.132 119.753C158.132 115.417 158.708 111.247 159.86 107.244C161.012 103.24 162.809 99.7142 165.251 96.6674C167.692 93.6205 170.817 91.1889 174.626 89.3724C178.434 87.556 183.014 86.6478 188.366 86.6478C194.03 86.6478 198.796 87.5756 202.663 89.431C206.53 91.2865 209.645 93.9135 212.008 97.3119C214.372 100.71 216.061 104.812 217.077 109.617C218.092 114.421 218.6 119.753 218.6 125.613L174.831 125.613C174.831 126.199 174.889 126.98 175.007 127.956C175.124 128.933 175.358 129.988 175.71 131.12C176.061 132.253 176.569 133.396 177.233 134.548C177.897 135.701 178.786 136.745 179.899 137.683C181.012 138.62 182.38 139.382 184.001 139.968C185.622 140.554 187.565 140.847 189.831 140.847C191.003 140.847 192.165 140.681 193.317 140.349C194.469 140.017 195.534 139.529 196.51 138.884C197.487 138.24 198.337 137.458 199.059 136.54C199.782 135.622 200.3 134.578 200.612 133.406L217.78 133.406C217.78 134.578 217.526 135.915 217.018 137.419C216.51 138.923 215.739 140.447 214.704 141.99C213.669 143.533 212.37 145.046 210.807 146.531C209.245 148.015 207.389 149.333 205.241 150.486C203.092 151.638 200.661 152.566 197.946 153.269C195.231 153.972 192.214 154.324 188.893 154.324C184.635 154.324 180.651 153.699 176.94 152.449ZM179.87 103.054C178.581 104.187 177.516 105.691 176.676 107.566C175.837 109.441 175.417 111.785 175.417 114.597L201.374 114.597C201.374 111.785 200.954 109.441 200.114 107.566C199.274 105.691 198.219 104.197 196.95 103.083C195.68 101.97 194.284 101.189 192.76 100.74C191.237 100.29 189.772 100.066 188.366 100.066C186.999 100.066 185.553 100.29 184.03 100.74C182.507 101.189 181.12 101.96 179.87 103.054Z"/>
<path clip-path="url(#TextBounds)" d="M270.632 125.027L246.257 125.027L246.257 152.39L229.675 152.39L229.675 88.5228L246.257 88.5228L246.257 111.609L270.632 111.609L270.632 88.5228L287.155 88.5228L287.155 152.39L270.632 152.39L270.632 125.027Z"/>
<path clip-path="url(#TextBounds)" d="M343.932 152.39L343.932 113.894L343.639 113.894L321.081 152.39L302.975 152.39L302.975 88.5228L319.557 88.5228L319.557 127.898L319.792 127.898L343.053 88.5228L360.456 88.5228L360.456 152.39L343.932 152.39Z"/>
<path clip-path="url(#TextBounds)" d="M376.276 88.5228L419.225 88.5228L419.225 101.999L392.858 101.999L392.858 152.39L376.276 152.39L376.276 88.5228Z"/>
<path clip-path="url(#TextBounds)" d="M444.772 151.804C440.749 150.124 437.321 147.781 434.489 144.773C431.657 141.765 429.489 138.191 427.985 134.05C426.481 129.91 425.729 125.378 425.729 120.456C425.729 115.535 426.481 111.003 427.985 106.863C429.489 102.722 431.657 99.1576 434.489 96.1693C437.321 93.181 440.749 90.8471 444.772 89.1674C448.796 87.4877 453.327 86.6478 458.366 86.6478C463.483 86.6478 468.063 87.4877 472.106 89.1674C476.149 90.8471 479.567 93.181 482.36 96.1693C485.153 99.1576 487.292 102.722 488.776 106.863C490.26 111.003 491.003 115.535 491.003 120.456C491.003 125.378 490.26 129.91 488.776 134.05C487.292 138.191 485.153 141.765 482.36 144.773C479.567 147.781 476.149 150.124 472.106 151.804C468.063 153.484 463.483 154.324 458.366 154.324C453.327 154.324 448.796 153.484 444.772 151.804ZM443.835 127.605C444.342 129.988 445.202 132.107 446.413 133.962C447.624 135.818 449.206 137.312 451.159 138.445C453.112 139.578 455.514 140.144 458.366 140.144C461.335 140.144 463.805 139.587 465.778 138.474C467.751 137.361 469.323 135.896 470.495 134.079C471.667 132.263 472.497 130.173 472.985 127.81C473.473 125.447 473.717 122.995 473.717 120.456C473.717 117.956 473.473 115.515 472.985 113.132C472.497 110.749 471.667 108.65 470.495 106.833C469.323 105.017 467.751 103.552 465.778 102.439C463.805 101.326 461.335 100.769 458.366 100.769C455.514 100.769 453.112 101.335 451.159 102.468C449.206 103.601 447.624 105.095 446.413 106.951C445.202 108.806 444.333 110.915 443.805 113.279C443.278 115.642 443.014 118.035 443.014 120.456C443.014 122.878 443.288 125.261 443.835 127.605Z"/>
<path clip-path="url(#TextBounds)" d="M526.276 89.2846C527.8 88.3861 529.489 87.7221 531.344 87.2924C533.2 86.8627 535.3 86.6478 537.643 86.6478C539.596 86.6478 541.608 86.8822 543.678 87.351C545.749 87.8197 547.77 88.5717 549.743 89.6068C551.716 90.642 553.581 91.9896 555.339 93.6498C557.096 95.3099 558.639 97.351 559.967 99.7728C561.296 102.195 562.35 105.017 563.132 108.24C563.913 111.462 564.303 115.144 564.303 119.285C564.303 124.441 563.747 129.167 562.633 133.464C561.52 137.761 559.841 141.453 557.594 144.538C555.348 147.624 552.516 150.027 549.098 151.745C545.68 153.464 541.667 154.324 537.057 154.324C535.456 154.324 533.835 154.167 532.194 153.855C530.553 153.542 528.952 153.015 527.389 152.273C525.827 151.531 524.352 150.525 522.966 149.255C521.579 147.986 520.358 146.394 519.303 144.48L519.069 144.48L519.069 177.117L502.487 177.117L502.487 88.5228L518.307 88.5228L518.307 97.6635L518.542 97.6635C519.675 95.7494 520.866 94.099 522.116 92.7123C523.366 91.3256 524.753 90.183 526.276 89.2846ZM523.639 136.628C524.694 137.683 525.964 138.533 527.448 139.177C528.932 139.822 530.69 140.144 532.721 140.144C534.753 140.144 536.51 139.822 537.995 139.177C539.479 138.533 540.749 137.683 541.803 136.628C542.858 135.574 543.727 134.363 544.411 132.995C545.094 131.628 545.632 130.212 546.022 128.747C546.413 127.283 546.676 125.837 546.813 124.412C546.95 122.986 547.018 121.667 547.018 120.456C547.018 118.23 546.764 115.984 546.257 113.718C545.749 111.453 544.938 109.421 543.825 107.624C542.712 105.828 541.237 104.363 539.401 103.23C537.565 102.097 535.339 101.531 532.721 101.531C530.065 101.531 527.829 102.097 526.012 103.23C524.196 104.363 522.731 105.828 521.618 107.624C520.505 109.421 519.694 111.453 519.186 113.718C518.678 115.984 518.425 118.23 518.425 120.456C518.425 121.667 518.493 122.986 518.63 124.412C518.766 125.837 519.03 127.283 519.421 128.747C519.811 130.212 520.348 131.628 521.032 132.995C521.716 134.363 522.585 135.574 523.639 136.628Z"/>
<path clip-path="url(#TextBounds)" d="M591.491 151.804C587.467 150.124 584.04 147.781 581.208 144.773C578.376 141.765 576.208 138.191 574.704 134.05C573.2 129.91 572.448 125.378 572.448 120.456C572.448 115.535 573.2 111.003 574.704 106.863C576.208 102.722 578.376 99.1576 581.208 96.1693C584.04 93.181 587.467 90.8471 591.491 89.1674C595.514 87.4877 600.046 86.6478 605.085 86.6478C610.202 86.6478 614.782 87.4877 618.825 89.1674C622.868 90.8471 626.286 93.181 629.079 96.1693C631.872 99.1576 634.01 102.722 635.495 106.863C636.979 111.003 637.721 115.535 637.721 120.456C637.721 125.378 636.979 129.91 635.495 134.05C634.01 138.191 631.872 141.765 629.079 144.773C626.286 147.781 622.868 150.124 618.825 151.804C614.782 153.484 610.202 154.324 605.085 154.324C600.046 154.324 595.514 153.484 591.491 151.804ZM590.553 127.605C591.061 129.988 591.921 132.107 593.132 133.962C594.342 135.818 595.925 137.312 597.878 138.445C599.831 139.578 602.233 140.144 605.085 140.144C608.053 140.144 610.524 139.587 612.497 138.474C614.469 137.361 616.042 135.896 617.214 134.079C618.385 132.263 619.216 130.173 619.704 127.81C620.192 125.447 620.436 122.995 620.436 120.456C620.436 117.956 620.192 115.515 619.704 113.132C619.216 110.749 618.385 108.65 617.214 106.833C616.042 105.017 614.469 103.552 612.497 102.439C610.524 101.326 608.053 100.769 605.085 100.769C602.233 100.769 599.831 101.335 597.878 102.468C595.925 103.601 594.342 105.095 593.132 106.951C591.921 108.806 591.051 110.915 590.524 113.279C589.997 115.642 589.733 118.035 589.733 120.456C589.733 122.878 590.007 125.261 590.553 127.605Z"/>
<path clip-path="url(#TextBounds)" d="M701.647 152.39L659.753 152.39L659.753 167.742L644.167 167.742L644.167 138.972L650.788 138.972C652.35 136.042 653.649 132.966 654.684 129.744C655.719 126.521 656.55 123.269 657.175 119.988C657.8 116.706 658.249 113.494 658.522 110.349C658.796 107.204 658.991 104.245 659.108 101.472C659.225 98.6986 659.274 96.1986 659.255 93.9721C659.235 91.7455 659.245 89.9291 659.284 88.5228L709.206 88.5228L709.206 138.972L717.233 138.972L717.233 167.742L701.647 167.742L701.647 152.39ZM670.007 132.644C669.303 134.91 668.444 137.019 667.428 138.972L692.682 138.972L692.682 101.999L673.698 101.999C673.698 103.171 673.688 104.617 673.669 106.335C673.649 108.054 673.571 109.958 673.434 112.048C673.298 114.138 673.102 116.355 672.848 118.699C672.594 121.042 672.223 123.386 671.735 125.73C671.247 128.074 670.671 130.378 670.007 132.644Z"/>
</g>
<g opacity="1">
<path d="M799.219 168.754C800.549 168.817 801.435 172.046 801.435 172.046C803.461 172.109 805.423 172.109 807.385 172.046C807.385 172.046 808.272 168.817 809.601 168.754C810.93 168.691 812.197 171.729 812.197 171.729C814.096 171.539 815.995 171.349 817.894 171.033C817.894 171.033 818.337 167.678 819.666 167.425C820.996 167.171 822.642 170.083 822.642 170.083C824.477 169.703 826.25 169.197 828.022 168.691C828.022 168.691 828.086 165.335 829.352 164.956C830.618 164.576 832.643 167.235 832.643 167.235C834.353 166.602 836.062 165.969 837.708 165.209C837.708 165.209 837.328 161.854 838.531 161.284C839.733 160.714 842.076 163.12 842.076 163.12C843.658 162.297 845.241 161.474 846.823 160.524C846.823 160.524 846.064 157.233 847.203 156.536C848.343 155.84 850.938 157.929 850.938 157.929C852.457 156.916 853.913 155.903 855.306 154.827C855.306 154.827 854.167 151.662 855.179 150.839C856.192 150.016 859.041 151.789 859.041 151.789C860.434 150.649 861.7 149.446 863.029 148.18C863.029 148.18 861.51 145.205 862.459 144.255C863.409 143.306 866.384 144.762 866.384 144.762C867.587 143.433 868.79 142.103 869.929 140.71C869.929 140.71 868.03 137.925 868.853 136.849C869.676 135.773 872.841 136.849 872.841 136.849C873.917 135.393 874.93 133.874 875.88 132.354C875.88 132.354 873.664 129.822 874.36 128.683C875.057 127.543 878.349 128.24 878.349 128.24C879.235 126.594 880.058 125.011 880.881 123.302C880.881 123.302 878.412 121.023 878.918 119.82C879.425 118.618 882.78 118.871 882.78 118.871C883.476 117.098 884.109 115.326 884.679 113.553C884.679 113.553 881.957 111.654 882.337 110.388C882.716 109.122 886.072 108.996 886.072 108.996C886.578 107.096 887.021 105.197 887.338 103.235C887.338 103.235 884.362 101.652 884.552 100.386C884.742 99.0569 888.034 98.4872 888.034 98.4872C888.161 97.4743 888.287 96.4615 888.414 95.4486C888.477 94.4358 888.54 93.4229 888.604 92.4101C888.604 92.4101 885.438 91.2073 885.502 89.9412C885.565 88.6119 888.73 87.6623 888.73 87.6623C888.73 85.6999 888.667 83.7375 888.54 81.7751C888.54 81.7751 885.249 81.0155 885.122 79.6861C884.995 78.3567 888.034 76.964 888.034 76.964C887.781 75.0649 887.464 73.2291 887.148 71.33C887.148 71.33 883.793 70.9502 883.539 69.6842C883.223 68.4181 886.135 66.6456 886.135 66.6456C885.692 64.8731 885.185 63.1006 884.552 61.3281C884.552 61.3281 881.197 61.3914 880.754 60.1254C880.311 58.8593 882.906 56.7703 882.906 56.7703C882.21 55.0611 881.514 53.4152 880.754 51.7693C880.754 51.7693 877.462 52.2124 876.829 51.073C876.259 49.8702 878.602 47.4647 878.602 47.4647C877.715 45.8821 876.829 44.3628 875.88 42.7802C875.88 42.7802 872.651 43.6665 871.892 42.527C871.132 41.4509 873.221 38.7921 873.221 38.7921C872.208 37.3362 871.132 35.8802 869.992 34.4875C869.992 34.4875 866.891 35.7536 866.004 34.7407C865.118 33.7279 866.891 30.8159 866.891 30.8159C865.688 29.4865 864.422 28.2205 863.156 26.9544C863.156 26.9544 860.18 28.537 859.231 27.6507C858.281 26.7645 859.611 23.6626 859.611 23.6626C858.281 22.4599 856.889 21.3204 855.433 20.2443C855.433 20.2443 852.711 22.2067 851.634 21.447C850.558 20.6874 851.508 17.4589 851.508 17.4589C849.989 16.4461 848.469 15.4965 846.887 14.547C846.887 14.547 844.418 16.8259 843.278 16.1928C842.139 15.5598 842.709 12.268 842.709 12.268C841.063 11.4451 839.354 10.6221 837.644 9.92581C837.644 9.92581 835.492 12.4579 834.226 12.0148C833.023 11.5084 833.15 8.15331 833.15 8.15331C831.377 7.52028 829.542 6.95055 827.706 6.38082C827.706 6.38082 825.87 9.16617 824.604 8.84965C823.338 8.53314 823.085 5.17806 823.085 5.17806C821.186 4.73494 819.223 4.35512 817.261 4.0386C817.261 4.0386 815.805 7.07716 814.475 6.88725C813.146 6.69734 812.513 3.40557 812.513 3.40557C812.386 3.40557 812.323 3.40557 812.197 3.34226C811.69 3.27896 811.12 3.27896 810.614 3.21566C809.221 3.08905 807.829 3.08905 806.499 3.02575C806.499 3.02575 805.423 6.19091 804.094 6.19091C802.764 6.19091 801.688 3.02575 801.688 3.02575C799.726 3.08905 797.763 3.21566 795.864 3.40557C795.864 3.40557 795.168 6.69734 793.902 6.88725C792.572 7.07716 791.117 4.0386 791.117 4.0386C790.737 4.1019 790.294 4.16521 789.914 4.22851C789.85 4.22851 789.787 4.22851 789.724 4.29181C788.331 4.54503 787.002 4.79824 785.609 5.11476C785.609 5.11476 785.356 8.46983 784.09 8.78635C782.824 9.10287 780.988 6.31752 780.988 6.31752C779.215 6.82395 777.443 7.39368 775.734 8.02671C775.734 8.02671 775.924 11.3818 774.658 11.8882C773.455 12.3946 771.239 9.7992 771.239 9.7992C770.796 9.98911 770.29 10.179 769.847 10.4322C768.644 11.002 767.504 11.5717 766.302 12.1414C766.302 12.1414 766.871 15.4332 765.669 16.0662C764.529 16.6993 762.06 14.4203 762.06 14.4203C760.478 15.3066 758.958 16.2561 757.502 17.269C757.502 17.269 758.452 20.4975 757.376 21.2571C756.3 22.0167 753.578 20.0543 753.578 20.0543C752.122 21.1305 750.792 22.27 749.4 23.4094C749.4 23.4094 750.729 26.5113 749.779 27.3975C748.83 28.2838 745.855 26.6379 745.855 26.6379C744.589 27.904 743.322 29.17 742.12 30.4994C742.12 30.4994 743.829 33.4113 742.943 34.4242C742.056 35.4371 738.955 34.171 738.955 34.171C737.815 35.5637 736.739 37.0196 735.663 38.4756C735.663 38.4756 737.688 41.1344 736.929 42.2105C736.169 43.2867 732.941 42.4637 732.941 42.4637C731.991 43.983 731.042 45.5656 730.155 47.2115C730.155 47.2115 732.498 49.617 731.928 50.8198C731.358 52.0225 728.003 51.5161 728.003 51.5161C727.18 53.2253 726.484 54.9345 725.787 56.6437C725.787 56.6437 728.383 58.7327 727.94 59.9987C727.497 61.2648 724.142 61.2015 724.142 61.2015C723.572 63.0373 723.002 64.8731 722.496 66.7722C722.496 66.7722 725.344 68.5447 725.091 69.8108C724.775 71.0768 721.483 71.4566 721.483 71.4566C721.103 73.4191 720.787 75.3815 720.597 77.4072C720.597 77.4072 723.635 78.7998 723.509 80.0659C723.382 81.3953 720.153 82.1549 720.153 82.1549C720.027 84.1806 719.964 86.2063 719.964 88.1687C719.964 88.1687 723.192 89.1183 723.255 90.4476C723.319 91.777 720.153 92.9798 720.153 92.9798C720.28 94.9422 720.47 96.8413 720.723 98.7404C720.723 98.7404 724.015 99.3101 724.205 100.639C724.395 101.969 721.483 103.488 721.483 103.488C721.863 105.324 722.242 107.16 722.686 108.932C722.686 108.932 726.041 109.059 726.421 110.325C726.8 111.591 724.015 113.553 724.015 113.553C724.585 115.326 725.218 117.035 725.914 118.681C725.914 118.681 729.269 118.428 729.776 119.63C730.282 120.833 727.813 123.112 727.813 123.112C728.573 124.758 729.396 126.404 730.219 127.923C730.219 127.923 733.51 127.227 734.207 128.366C734.903 129.506 732.688 132.038 732.688 132.038C733.637 133.557 734.65 135.013 735.663 136.532C735.663 136.532 738.828 135.456 739.651 136.532C740.474 137.609 738.575 140.394 738.575 140.394C739.714 141.787 740.854 143.179 742.056 144.509C742.056 144.509 745.095 143.053 746.045 144.002C746.931 144.952 745.412 147.927 745.412 147.927C746.678 149.193 748.007 150.396 749.4 151.535C749.4 151.535 752.248 149.763 753.261 150.586C754.274 151.409 753.135 154.574 753.135 154.574C754.147 155.397 755.224 156.157 756.3 156.916C756.616 157.169 756.996 157.423 757.313 157.612C757.376 157.676 757.439 157.676 757.502 157.739C757.502 157.739 760.098 155.587 761.237 156.346C762.377 157.043 761.554 160.335 761.554 160.335C763.136 161.284 764.719 162.107 766.365 162.993C766.365 162.993 768.707 160.588 769.91 161.157C771.113 161.727 770.733 165.019 770.733 165.019C771.999 165.589 773.328 166.095 774.658 166.602L774.658 166.602C775.101 166.791 775.544 166.918 775.987 167.108C775.987 167.108 778.013 164.386 779.279 164.829C780.545 165.209 780.608 168.564 780.608 168.564C782.444 169.134 784.343 169.577 786.242 170.02C786.242 170.02 787.888 167.108 789.217 167.361C790.547 167.614 790.99 170.906 790.99 170.906C792.319 171.096 793.712 171.349 795.105 171.476C795.611 171.539 796.181 171.603 796.687 171.666C796.814 171.666 796.877 171.666 797.004 171.666C796.624 171.792 797.89 168.627 799.219 168.754ZM809.854 25.8783C843.848 22.7131 875.373 60.3153 865.814 93.2963C868.98 59.3024 843.975 29.1067 809.854 25.8783ZM748.387 76.5842C748.577 75.6347 748.767 74.6851 749.02 73.7989C750.412 68.2282 752.565 63.0373 755.413 58.3529C755.857 57.5932 756.363 56.7703 756.869 56.0106C757.376 55.251 757.882 54.4914 758.452 53.795C758.705 53.4152 759.022 53.0354 759.275 52.7189C759.845 52.0225 760.414 51.2629 760.984 50.6299C763.643 47.528 766.681 44.7426 769.91 42.2738C770.606 41.7041 771.366 41.1977 772.126 40.6912C773.265 39.9316 774.404 39.172 775.607 38.5389C776.81 37.8426 778.013 37.2096 779.215 36.6398C780.418 36.0701 781.684 35.5004 783.014 34.9939C783.457 34.804 783.9 34.6774 784.28 34.4875C788.141 33.0315 792.193 32.0187 796.434 31.4489C798.27 31.1957 800.169 31.0058 802.131 30.9425C804.537 30.8792 806.942 30.9425 809.411 31.1324C811.88 31.3856 814.222 31.7655 816.564 32.2719C818.337 32.6517 820.046 33.1581 821.755 33.6646C821.945 33.7279 822.198 33.7912 822.388 33.8545C826.313 35.1838 829.985 36.893 833.403 38.982C833.91 39.2986 834.479 39.6151 834.986 39.9949C835.999 40.6279 837.011 41.3243 837.961 42.0839C839.037 42.9069 840.113 43.7298 841.189 44.6793C842.392 45.6922 843.532 46.7684 844.608 47.9078C845.114 48.4142 845.557 48.9207 846.064 49.4271C846.697 50.1234 847.267 50.7565 847.836 51.4528C848.406 52.1491 848.976 52.8455 849.545 53.6051C849.799 53.9849 850.115 54.3648 850.368 54.6813C850.875 55.4409 851.381 56.2006 851.888 56.9602C852.394 57.7198 852.837 58.4795 853.344 59.3024C853.85 60.1254 854.23 60.885 854.673 61.7079C854.863 62.0878 855.116 62.5309 855.306 62.9107C855.686 63.7336 856.066 64.5566 856.446 65.3795C856.825 66.2025 857.142 67.0887 857.458 67.9117C859.358 73.1025 860.56 78.6099 860.877 84.3072C860.94 85.2568 860.94 86.2063 861.003 87.1559C861.003 89.055 860.94 91.0174 860.75 92.9798C860.56 94.9422 860.307 96.8413 859.927 98.7404C859.737 99.6899 859.547 100.639 859.294 101.526C858.851 103.362 858.281 105.197 857.648 106.97C857.332 107.856 857.015 108.742 856.635 109.565C856.129 110.831 855.496 112.097 854.863 113.363C853.85 115.452 852.647 117.415 851.381 119.314C850.875 120.074 850.368 120.833 849.799 121.53C849.545 121.909 849.229 122.289 848.976 122.606C847.836 124.062 846.634 125.454 845.431 126.72C844.481 127.733 843.532 128.683 842.519 129.569C841.189 130.772 839.797 131.975 838.341 133.051C837.961 133.304 837.581 133.621 837.265 133.874C835.429 135.203 833.466 136.406 831.504 137.482C829.099 138.811 826.63 139.951 824.034 140.9C823.591 141.09 823.148 141.217 822.705 141.344C817.451 143.116 811.943 144.192 806.183 144.382C803.777 144.445 801.372 144.382 798.903 144.192C791.56 143.496 784.723 141.47 778.519 138.305C777.696 137.862 776.873 137.482 776.05 136.976C775.67 136.722 775.227 136.532 774.848 136.279C773.645 135.583 772.505 134.823 771.366 134C770.226 133.177 769.15 132.354 768.074 131.532C766.998 130.645 765.985 129.759 764.972 128.809C764.339 128.176 763.643 127.543 763.01 126.91C762.377 126.277 761.744 125.581 761.174 124.885C760.288 123.872 759.402 122.796 758.579 121.72C757.756 120.643 756.996 119.504 756.236 118.364C755.983 117.985 755.73 117.605 755.54 117.225C754.844 116.086 754.147 114.883 753.514 113.68C753.324 113.3 753.071 112.857 752.881 112.477C752.501 111.654 752.122 110.831 751.742 110.008C750.856 107.919 750.033 105.704 749.4 103.488C749.02 102.159 748.703 100.829 748.387 99.4367C748.197 98.5505 748.007 97.6009 747.88 96.6514C747.564 94.8156 747.374 92.9165 747.247 91.0174C747.184 90.0678 747.184 89.1183 747.121 88.1687C747.121 86.2696 747.184 84.3072 747.374 82.3448C747.754 80.3824 748.007 78.4833 748.387 76.5842ZM731.295 80.8255C732.688 121.719 756.933 151.092 797.32 160.461C757.123 156.726 727.56 121.023 731.295 80.8255Z" fill="#000000" fill-rule="nonzero" opacity="1" stroke="none"/>
<g opacity="1">
<path d="M804.157 33.0948C774.088 33.0948 749.653 57.5299 749.653 87.599C749.653 117.668 774.088 142.103 804.157 142.103C834.226 142.103 858.661 117.668 858.661 87.599C858.661 57.5299 834.226 33.0948 804.157 33.0948ZM856.129 95.6385C855.623 99.1202 854.736 102.475 853.534 105.704C853.217 106.527 852.901 107.286 852.584 108.109C851.888 109.692 851.191 111.211 850.368 112.73C849.989 113.49 849.545 114.186 849.102 114.946C847.33 117.858 845.304 120.517 843.025 123.049C840.746 125.518 838.277 127.797 835.555 129.822C834.226 130.835 832.833 131.785 831.377 132.671C830.681 133.114 829.921 133.557 829.162 133.937C827.643 134.76 826.123 135.456 824.541 136.153C818.274 138.811 811.374 140.267 804.094 140.267C796.814 140.267 789.914 138.811 783.647 136.153C782.064 135.456 780.545 134.76 779.026 133.937C778.266 133.557 777.57 133.114 776.81 132.671C775.354 131.785 773.961 130.835 772.632 129.822C769.91 127.797 767.441 125.518 765.162 123.049C762.883 120.58 760.858 117.858 759.085 114.946C758.642 114.25 758.199 113.49 757.819 112.73C756.996 111.211 756.3 109.692 755.603 108.109C755.287 107.35 754.97 106.527 754.654 105.704C753.451 102.475 752.628 99.1202 752.058 95.6385C751.679 93.0431 751.425 90.3843 751.425 87.6623C751.425 58.6694 775.037 35.0572 804.03 35.0572C833.023 35.0572 856.635 58.6694 856.635 87.6623C856.699 90.321 856.509 92.9798 856.129 95.6385Z" fill="#000000" fill-rule="nonzero" opacity="1" stroke="none"/>
<path d="M804.157 28.4737C771.556 28.4737 745.032 54.9978 745.032 87.599C745.032 120.2 771.556 146.724 804.157 146.724C836.758 146.724 863.282 120.2 863.282 87.599C863.282 54.9978 836.758 28.4737 804.157 28.4737ZM804.157 145.522C772.252 145.522 746.298 119.567 746.298 87.6623C746.298 55.7574 772.252 29.8031 804.157 29.8031C836.062 29.8031 862.016 55.7574 862.016 87.6623C862.016 119.567 836.062 145.522 804.157 145.522Z" fill="#000000" fill-rule="nonzero" opacity="1" stroke="none"/>
<path d="M827.896 87.599C827.896 74.4952 817.261 63.8603 804.157 63.8603C791.053 63.8603 780.418 74.4952 780.418 87.599C780.418 100.703 791.053 111.338 804.157 111.338C817.197 111.338 827.896 100.703 827.896 87.599ZM780.671 87.599C780.671 74.6851 791.18 64.1768 804.094 64.1768C817.008 64.1768 827.516 74.6851 827.516 87.599C827.516 100.513 817.008 111.021 804.094 111.021C791.243 111.085 780.671 100.513 780.671 87.599Z" fill="#000000" fill-rule="nonzero" opacity="1" stroke="none"/>
<path d="M804.157 77.154C798.396 77.154 793.712 81.8384 793.649 87.599C793.649 93.3596 798.333 98.0441 804.094 98.1074C809.854 98.1074 814.602 93.4229 814.602 87.6623C814.602 81.8384 809.918 77.154 804.157 77.154Z" fill="#000000" fill-rule="nonzero" opacity="1" stroke="none"/>
<path d="M804.157 50.25C805.929 50.25 807.322 48.8574 807.322 47.0849C807.322 45.3124 805.929 43.9197 804.157 43.9197C802.385 43.9197 800.992 45.3124 800.992 47.0849C800.929 48.7941 802.385 50.1867 804.157 50.25Z" fill="#000000" fill-rule="nonzero" opacity="1" stroke="none"/>
<path d="M804.157 131.405C805.929 131.405 807.322 130.012 807.322 128.24C807.322 126.467 805.929 125.075 804.157 125.075C802.385 125.075 800.992 126.467 800.992 128.24C800.929 129.949 802.385 131.405 804.157 131.405Z" fill="#000000" fill-rule="nonzero" opacity="1" stroke="none"/>
<path d="M847.9 87.599C847.9 85.8265 846.507 84.4338 844.734 84.4338C842.962 84.4338 841.569 85.8265 841.569 87.599C841.569 89.3715 842.962 90.7642 844.734 90.7642C846.444 90.8275 847.9 89.3715 847.9 87.599Z" fill="#000000" fill-rule="nonzero" opacity="1" stroke="none"/>
<path d="M760.351 87.599C760.351 89.3715 761.744 90.7642 763.516 90.7642C765.289 90.7642 766.681 89.3715 766.681 87.599C766.681 85.8265 765.289 84.4338 763.516 84.4338C761.807 84.4338 760.351 85.8898 760.351 87.599Z" fill="#000000" fill-rule="nonzero" opacity="1" stroke="none"/>
<path d="M835.049 61.2015C836.315 59.9354 836.315 57.973 835.049 56.707C833.783 55.4409 831.821 55.4409 830.554 56.707C829.288 57.973 829.288 59.9354 830.554 61.2015C831.821 62.4043 833.846 62.4043 835.049 61.2015Z" fill="#000000" fill-rule="nonzero" opacity="1" stroke="none"/>
<path d="M773.202 114.06C771.936 115.326 771.936 117.288 773.202 118.554C774.468 119.82 776.43 119.82 777.696 118.554C778.962 117.288 778.962 115.326 777.696 114.06C776.43 112.857 774.468 112.857 773.202 114.06Z" fill="#000000" fill-rule="nonzero" opacity="1" stroke="none"/>
<path d="M830.554 118.554C831.821 119.82 833.783 119.82 835.049 118.554C836.315 117.288 836.315 115.326 835.049 114.06C833.783 112.794 831.821 112.794 830.554 114.06C829.352 115.326 829.352 117.288 830.554 118.554Z" fill="#000000" fill-rule="nonzero" opacity="1" stroke="none"/>
<path d="M777.696 56.707C776.43 55.4409 774.468 55.4409 773.202 56.707C771.936 57.973 771.936 59.9354 773.202 61.2015C774.468 62.4676 776.43 62.4676 777.696 61.2015C778.899 59.9354 778.962 57.9097 777.696 56.707Z" fill="#000000" fill-rule="nonzero" opacity="1" stroke="none"/>
<path d="M822.072 51.073C822.705 49.4271 821.945 47.5913 820.299 46.9583C818.653 46.3252 816.818 47.0849 816.185 48.7308C815.552 50.3766 816.311 52.2124 817.957 52.8455C819.54 53.4785 821.439 52.7189 822.072 51.073Z" fill="#000000" fill-rule="nonzero" opacity="1" stroke="none"/>
<path d="M786.179 124.188C785.546 125.834 786.305 127.67 787.951 128.303C789.597 128.936 791.433 128.176 792.066 126.531C792.699 124.885 791.939 123.049 790.294 122.416C788.711 121.72 786.875 122.542 786.179 124.188Z" fill="#000000" fill-rule="nonzero" opacity="1" stroke="none"/>
<path d="M840.683 105.577C842.329 106.21 844.165 105.451 844.798 103.805C845.431 102.159 844.671 100.323 843.025 99.6899C841.379 99.0569 839.544 99.8165 838.911 101.462C838.277 103.045 839.037 104.881 840.683 105.577Z" fill="#000000" fill-rule="nonzero" opacity="1" stroke="none"/>
<path d="M765.225 75.5714C766.871 76.2044 768.707 75.4448 769.34 73.7989C769.973 72.153 769.214 70.3172 767.568 69.6842C765.922 69.0511 764.086 69.8108 763.453 71.4567C762.82 73.1025 763.58 74.9383 765.225 75.5714Z" fill="#000000" fill-rule="nonzero" opacity="1" stroke="none"/>
<path d="M842.645 74.4952C844.291 73.7989 844.988 71.9631 844.291 70.3172C843.595 68.7346 841.759 67.975 840.113 68.6713C838.531 69.3676 837.771 71.2034 838.467 72.8493C839.164 74.4319 841.063 75.1282 842.645 74.4952Z" fill="#000000" fill-rule="nonzero" opacity="1" stroke="none"/>
<path d="M768.137 106.653C769.783 105.957 770.48 104.121 769.783 102.475C769.087 100.893 767.251 100.133 765.605 100.829C764.023 101.526 763.263 103.362 763.959 105.007C764.656 106.59 766.492 107.35 768.137 106.653Z" fill="#000000" fill-rule="nonzero" opacity="1" stroke="none"/>
<path d="M818.97 121.973C817.387 122.669 816.628 124.505 817.324 126.151C818.02 127.797 819.856 128.493 821.502 127.797C823.085 127.1 823.844 125.264 823.148 123.619C822.452 122.036 820.553 121.276 818.97 121.973Z" fill="#000000" fill-rule="nonzero" opacity="1" stroke="none"/>
<path d="M786.812 47.4647C785.229 48.161 784.47 49.9968 785.166 51.6427C785.862 53.2886 787.698 53.9849 789.344 53.2886C790.927 52.5923 791.686 50.7565 790.99 49.1106C790.294 47.4647 788.394 46.7684 786.812 47.4647Z" fill="#000000" fill-rule="nonzero" opacity="1" stroke="none"/>
</g>
</g>
<path clip-path="url(#TextBounds_2)" d="M1008.24 146.491L979.748 146.491L946.422 98.8105L935.436 110.017L935.436 146.491L912.951 146.491L912.951 38.8251L935.436 38.8251L935.436 82.624L976.598 38.8251L1005.68 38.8251L961.73 82.9169L1008.24 146.491Z" fill="#ff0000" opacity="1" stroke="none"/>
</g>
</g>
</svg>
